<?xml version="1.0" encoding="UTF-8"?>
<svg version="1.1" stroke="none" fill="url(#iconGradient)" stroke-width="0" viewBox="0 0 576 512" height="200px" width="200px"
     xmlns="http://www.w3.org/2000/svg">
    <defs>
    <linearGradient id="iconGradient" x1="0" y1="0" x2="1" y2="1">
      <stop offset="0%" stop-color="#ffffff"/>
      <stop offset="50%" stop-color="#d0e8ff"/>
      <stop offset="100%" stop-color="#a8d8ff"/>
    </linearGradient>
  </defs>
    <path d="M0 0 C5.01541377 0.2936937 8.66136738 1.55669932 13.03515625 3.95703125 C14.16276367 4.56885254 15.29037109 5.18067383 16.45214844 5.81103516 C17.65570933 6.47799097 18.85915719 7.14515079 20.0625 7.8125 C21.31879622 8.49887291 22.57563962 9.18424517 23.83300781 9.86865234 C26.97982915 11.5843029 30.12010722 13.31155695 33.2588501 15.04193115 C35.79699389 16.4385464 38.34160971 17.82315852 40.88671875 19.20703125 C44.44033794 21.13939345 47.99097938 23.07702355 51.5390625 25.01953125 C55.44369527 27.15472103 59.3562106 29.27472352 63.2734375 31.38671875 C91.72871369 46.72871369 91.72871369 46.72871369 95 50 C95.25168228 51.94280243 95.25168228 51.94280243 95.25396729 54.3651123 C95.25960693 55.28211411 95.26524658 56.19911591 95.27105713 57.14390564 C95.26700867 58.1528035 95.26296021 59.16170135 95.25878906 60.20117188 C95.2622937 61.26139053 95.26579834 62.32160919 95.26940918 63.41395569 C95.27823999 66.9322863 95.27237252 70.45041721 95.265625 73.96875 C95.26697126 76.40490762 95.26891146 78.84106498 95.27142334 81.27722168 C95.27437644 86.3884537 95.27007097 91.49961592 95.26074219 96.61083984 C95.24934761 103.17523504 95.25590609 109.73946671 95.26788712 116.3038559 C95.27510068 121.33601116 95.2728201 126.3681274 95.26763153 131.40028381 C95.26629364 133.82129434 95.26794759 136.24230837 95.27259064 138.66331482 C95.27764757 142.04191525 95.26995723 145.42024774 95.25878906 148.79882812 C95.26283752 149.80772598 95.26688599 150.81662384 95.27105713 151.85609436 C95.26541748 152.77309616 95.25977783 153.69009796 95.25396729 154.6348877 C95.25321323 155.43424995 95.25245918 156.23361221 95.25168228 157.05719757 C95 159 95 159 93 161 C88.01470899 161.57582631 85.00595641 160.32348541 80.66015625 157.95703125 C80.06574234 157.63748474 79.47132843 157.31793823 78.85890198 156.9887085 C76.91992423 155.94206394 74.99135467 154.87766756 73.0625 153.8125 C71.70345406 153.07388274 70.34391012 152.33618113 68.98388672 151.59936523 C60.24458092 146.8494296 51.57290472 141.97967 42.94824219 137.0246582 C37.22759291 133.75780275 31.44587662 130.63536913 25.60546875 127.58984375 C24.87888062 127.2096962 24.15229248 126.82954865 23.40368652 126.43788147 C19.79609926 124.55147763 16.18297073 122.67740391 12.55908203 120.82250977 C11.2331583 120.13213419 9.90746385 119.44131801 8.58203125 118.75 C7.40874268 118.14671875 6.2354541 117.5434375 5.02661133 116.921875 C1.6450171 114.77458858 0.08260894 113.43067387 -2 110 C-2.58160712 106.51633111 -2.52590574 103.07487798 -2.48583984 99.55004883 C-2.48963654 98.49914566 -2.49343323 97.44824249 -2.49734497 96.36549377 C-2.5047481 92.89570168 -2.48337453 89.42674876 -2.4609375 85.95703125 C-2.45855337 83.54758299 -2.45764769 81.13813285 -2.4581604 78.72868347 C-2.45503304 73.68236637 -2.438469 68.63633351 -2.41162109 63.59008789 C-2.37758689 57.10983309 -2.36999408 50.62988987 -2.37151146 44.14955616 C-2.37096871 39.17657985 -2.36001774 34.20367216 -2.34550858 29.23071861 C-2.33912916 26.84041552 -2.33519902 24.45010462 -2.33372116 22.05979347 C-2.32940342 18.72698217 -2.31193684 15.3945071 -2.29052734 12.06176758 C-2.29143372 11.06693359 -2.29234009 10.07209961 -2.29327393 9.04711914 C-2.28474396 8.14286697 -2.27621399 7.23861481 -2.26742554 6.30696106 C-2.26407385 5.5188696 -2.26072216 4.73077814 -2.25726891 3.91880512 C-2 2 -2 2 0 0 Z "
          transform="translate(153,207)"/>
    <path d="M0 0 C2.42093724 2.42093724 2.25334331 2.99577041 2.26742554 6.30696106 C2.27595551 7.21121323 2.28448547 8.11546539 2.29327393 9.04711914 C2.29236755 10.04195312 2.29146118 11.03678711 2.29052734 12.06176758 C2.29724457 13.10741379 2.30396179 14.15306 2.31088257 15.23039246 C2.32994639 18.70181984 2.33379119 22.17305471 2.3359375 25.64453125 C2.34236028 28.05108216 2.34908824 30.45763228 2.35610962 32.86418152 C2.36810386 37.91573904 2.3717883 42.96722807 2.37060547 48.01879883 C2.37040232 54.49558461 2.39769152 60.97193141 2.43214989 67.44861317 C2.45437713 72.42170736 2.45844426 77.3946953 2.45738602 82.36783409 C2.45974877 84.75567829 2.46861 87.14352513 2.48405075 89.53132057 C2.50362289 92.87120981 2.49790621 96.21014457 2.48583984 99.55004883 C2.49707886 100.53881012 2.50831787 101.52757141 2.51989746 102.54629517 C2.48051623 106.83093042 2.41875191 109.31019155 0.15879822 113.03300476 C-2.55797499 115.50840053 -5.31189343 117.06856129 -8.58203125 118.75 C-9.22384842 119.08475845 -9.86566559 119.41951691 -10.52693176 119.76441956 C-11.90217085 120.48047242 -13.2800232 121.19152484 -14.66021729 121.89797974 C-18.32064536 123.77220652 -21.9617208 125.68345167 -25.60546875 127.58984375 C-26.69631775 128.15867531 -26.69631775 128.15867531 -27.8092041 128.73899841 C-33.82387345 131.88337436 -39.74006216 135.18150552 -45.625 138.5625 C-54.04786734 143.36556548 -62.51027603 148.09217615 -71.0355835 152.71090698 C-72.37431886 153.43848581 -73.71068379 154.17044524 -75.04449463 154.90701294 C-76.91002202 155.93593116 -78.78367244 156.94826642 -80.66015625 157.95703125 C-81.73918213 158.54460205 -82.81820801 159.13217285 -83.92993164 159.73754883 C-87.24967866 161.10267104 -89.4475848 161.41032191 -93 161 C-95.42836556 158.57163444 -95.2547446 157.97384385 -95.27415466 154.64834595 C-95.28412979 153.73423447 -95.29410492 152.82012299 -95.30438232 151.87831116 C-95.305047 150.87255539 -95.30571167 149.86679962 -95.30639648 148.83056641 C-95.31472 147.77356033 -95.32304352 146.71655426 -95.33161926 145.6275177 C-95.35579685 142.11882896 -95.36450085 138.61032582 -95.37109375 135.1015625 C-95.38005408 132.67019594 -95.38917581 130.23882997 -95.39845276 127.8074646 C-95.41496637 122.70463722 -95.42264721 117.60187564 -95.42553711 112.49902344 C-95.43092364 105.95255444 -95.46860564 99.40670171 -95.51428127 92.86040688 C-95.5439882 87.83673837 -95.55125929 82.8132194 -95.55226326 77.78947067 C-95.55647811 75.37566683 -95.56896264 72.96186304 -95.58978081 70.54814529 C-95.61656239 67.17437374 -95.61190828 63.80204534 -95.59936523 60.42822266 C-95.61419952 59.42651535 -95.62903381 58.42480804 -95.64431763 57.39274597 C-95.5724291 50.62072814 -95.5724291 50.62072814 -92.65879822 47.46125793 C-91.78139481 46.97904282 -90.90399139 46.4968277 -90 46 C-88.96375488 45.40324463 -87.92750977 44.80648926 -86.85986328 44.19165039 C-85.69181152 43.58313232 -84.52375977 42.97461426 -83.3203125 42.34765625 C-82.35970917 41.84339615 -82.35970917 41.84339615 -81.37969971 41.32894897 C-80.00903584 40.60964455 -78.6372156 39.89254002 -77.26434326 39.17745972 C-73.62262564 37.27950882 -69.99060723 35.36323107 -66.359375 33.4453125 C-65.2731636 32.87184334 -65.2731636 32.87184334 -64.16500854 32.28678894 C-58.17181901 29.1125286 -52.25867087 25.81047573 -46.375 22.4375 C-37.93890408 17.62414436 -29.45505066 12.90506726 -20.90948486 8.28909302 C-19.56433941 7.56075 -18.22115578 6.82877087 -16.88006592 6.09298706 C-15.00612293 5.06604372 -13.12533454 4.05291155 -11.2421875 3.04296875 C-9.61579346 2.16161255 -9.61579346 2.16161255 -7.95654297 1.26245117 C-4.97323526 -0.01142861 -3.194685 -0.4505504 0 0 Z "
          transform="translate(359,207)"/>
    <path d="M0 0 C1.07902588 0.5875708 2.15805176 1.1751416 3.26977539 1.78051758 C3.86459717 2.10029068 4.45941895 2.42006378 5.07226562 2.74952698 C7.01082186 3.79595961 8.93898649 4.86011543 10.86743164 5.92504883 C12.2198832 6.66000882 13.57283502 7.39404896 14.92626953 8.12719727 C23.88960542 12.99844045 32.77687518 18.00392695 41.63208008 23.06884766 C48.37965758 26.91271524 55.21947126 30.54650726 62.11743164 34.11254883 C64.90529062 35.5619459 67.69250694 37.01256621 70.47924805 38.46411133 C72.01065711 39.25987041 73.54389546 40.05213034 75.07983398 40.83911133 C76.83243139 41.74275962 78.56963591 42.67610522 80.30493164 43.61254883 C81.19954102 44.0843457 82.09415039 44.55614258 83.01586914 45.04223633 C85.63781304 47.36452949 85.6738018 49.33197064 85.92993164 52.73754883 C82.37396039 55.74666914 78.81281039 58.01542918 74.68774414 60.17114258 C74.09150742 60.48525589 73.49527069 60.7993692 72.88096619 61.1230011 C71.60423504 61.79536614 70.32634302 62.46553074 69.0473938 63.13366699 C65.64888826 64.90993256 62.25973763 66.7038162 58.87133789 68.49926758 C57.85120857 69.03954086 57.85120857 69.03954086 56.81047058 69.59072876 C50.80815488 72.78045935 44.88988575 76.10802146 38.99243164 79.48754883 C28.62263925 85.42061967 18.07717994 90.9782714 7.43481445 96.40551758 C5.75682101 97.29783066 4.10406158 98.2391933 2.47973633 99.22583008 C1.32199707 99.92772461 1.32199707 99.92772461 0.14086914 100.64379883 C-0.52895996 101.06983398 -1.19878906 101.49586914 -1.88891602 101.93481445 C-5.91923312 103.41810107 -9.183294 102.13476228 -12.97241211 100.4375 C-13.97401367 99.8906958 -14.97561523 99.3438916 -16.00756836 98.78051758 C-17.13839844 98.16869629 -18.26922852 97.556875 -19.43432617 96.92651367 C-20.64633627 96.2595332 -21.85824801 95.59237398 -23.07006836 94.92504883 C-24.33104218 94.2388934 -25.59244082 93.55351812 -26.85424805 92.86889648 C-30.014213 91.15193881 -33.16879794 89.42536268 -36.32177734 87.69561768 C-38.86514433 86.30184475 -41.41286268 84.91611018 -43.96069336 83.53051758 C-47.51279172 81.59776757 -51.06198198 79.65983494 -54.60913086 77.71801758 C-58.51376363 75.5828278 -62.42627896 73.46282531 -66.34350586 71.35083008 C-94.79878205 56.00883514 -94.79878205 56.00883514 -98.07006836 52.73754883 C-97.97875977 49.79833984 -97.97875977 49.79833984 -97.07006836 46.73754883 C-95.1184082 45.06933594 -95.1184082 45.06933594 -92.53100586 43.76489258 C-91.5706543 43.26505859 -90.61030273 42.76522461 -89.62084961 42.25024414 C-88.5728418 41.73042969 -87.52483398 41.21061523 -86.44506836 40.67504883 C-84.22257036 39.52491271 -82.00124173 38.3725145 -79.78100586 37.21801758 C-78.65146484 36.63713379 -77.52192383 36.05625 -76.3581543 35.45776367 C-71.52158274 32.92743376 -66.79942345 30.21140172 -62.07006836 27.48754883 C-51.19431546 21.27627266 -40.14658151 15.40341298 -29.07006836 9.56079102 C-28.41335144 9.21409363 -27.75663452 8.86739624 -27.08001709 8.51019287 C-25.80196702 7.83636018 -24.52305506 7.16415932 -23.2432251 6.49371338 C-19.10472701 4.31779345 -15.06182629 2.02178834 -11.09301758 -0.44995117 C-7.06986709 -2.06581466 -3.95090882 -1.62466398 0 0 Z "
          transform="translate(262.070068359375,139.262451171875)"/>
    <path d="M0 0 C0.725289 -0.00807175 1.450578 -0.01614349 2.19784546 -0.02445984 C3.73262164 -0.03826523 5.26742806 -0.04900318 6.80224609 -0.05688477 C8.35572448 -0.06836208 9.90916476 -0.08874625 11.46240234 -0.1184082 C22.35582601 -0.32615621 31.81818205 -0.08636813 40.3984375 7.42578125 C46.98389829 13.96160289 47.98203975 21.87720392 48.03240967 30.76445007 C48.02506979 32.32014582 48.01082597 33.87582295 47.98999023 35.43139648 C47.96095473 37.79937628 47.96942525 40.1651202 47.98242188 42.53320312 C47.97618463 44.06120863 47.96779379 45.58920717 47.95703125 47.1171875 C47.95996689 47.813246 47.96290253 48.5093045 47.96592712 49.22645569 C47.81217708 57.3608036 44.98038747 63.57472633 39.484375 69.4765625 C31.01661653 77.08405069 20.53492258 76.44353495 9.7734375 76.48828125 C8.54882812 76.50890625 7.32421875 76.52953125 6.0625 76.55078125 C-3.88979714 76.59340351 -12.77225465 75.54769044 -20.71875 69.11328125 C-28.98456278 60.29641429 -28.68149316 49.38008734 -28.7265625 38.05078125 C-28.7471875 36.77396484 -28.7678125 35.49714844 -28.7890625 34.18164062 C-28.83303574 23.490646 -27.96029209 14.86369593 -20.37890625 6.9296875 C-14.13611727 1.37911742 -8.15158105 0.0870548 0 0 Z "
          transform="translate(457.4765625,326.76171875)"/>
    <path d="M0 0 C2.30431324 0.0160766 4.60687307 0.00010192 6.91113281 -0.01904297 C17.62448055 -0.03580116 25.40054428 0.85519617 33.54785156 8.42626953 C41.08626846 16.83386088 40.51706235 26.89317323 40.55957031 37.57861328 C40.58019531 38.85542969 40.60082031 40.13224609 40.62207031 41.44775391 C40.66365076 51.55700125 39.72691136 60.55350958 33.18457031 68.63330078 C24.46245013 76.81028845 13.7704623 76.57284636 2.55957031 76.57861328 C0.70332031 76.59698242 0.70332031 76.59698242 -1.19042969 76.61572266 C-11.96115741 76.63290999 -20.75842394 76.2731274 -28.69042969 68.39111328 C-35.87401936 59.38039319 -35.95688767 51.80235378 -36.04052734 40.68505859 C-36.05701985 39.08302211 -36.08422092 37.48105715 -36.12255859 35.87939453 C-36.37405167 25.29481651 -36.31721912 16.49415574 -28.72900391 8.26367188 C-20.31219638 0.0333618 -11.11492935 -0.09234816 0 0 Z "
          transform="translate(42.6904296875,326.60888671875)"/>
    <path d="M0 0 C1.22460938 -0.020625 2.44921875 -0.04125 3.7109375 -0.0625 C13.66323464 -0.10512226 22.54569215 0.94059081 30.4921875 7.375 C38.75800028 16.19186696 38.45493066 27.10819391 38.5 38.4375 C38.520625 39.71431641 38.54125 40.99113281 38.5625 42.30664062 C38.60647324 52.99763525 37.73372959 61.62458532 30.15234375 69.55859375 C23.90955477 75.10916383 17.92501855 76.40122645 9.7734375 76.48828125 C9.0481485 76.496353 8.3228595 76.50442474 7.57559204 76.51274109 C6.04081586 76.52654648 4.50600944 76.53728443 2.97119141 76.54516602 C1.41771302 76.55664333 -0.13572726 76.5770275 -1.68896484 76.60668945 C-12.58238851 76.81443746 -22.04474455 76.57464938 -30.625 69.0625 C-37.21046079 62.52667836 -38.20860225 54.61107733 -38.25897217 45.72383118 C-38.25163229 44.16813543 -38.23738847 42.6124583 -38.21655273 41.05688477 C-38.18751723 38.68890497 -38.19598775 36.32316105 -38.20898438 33.95507812 C-38.20274713 32.42707262 -38.19435629 30.89907408 -38.18359375 29.37109375 C-38.18652939 28.67503525 -38.18946503 27.97897675 -38.19248962 27.26182556 C-38.03873958 19.12747765 -35.20694997 12.91355492 -29.7109375 7.01171875 C-21.24317903 -0.59576944 -10.76148508 0.0447463 0 0 Z "
          transform="translate(44.75,108.75)"/>
    <path d="M0 0 C1.2375 -0.01224609 2.475 -0.02449219 3.75 -0.03710938 C14.52072772 -0.05429671 23.31799425 0.30548588 31.25 8.1875 C36.69266604 15.01449631 38.395598 19.98544767 38.48828125 28.6640625 C38.496353 29.3893515 38.50442474 30.1146405 38.51274109 30.86190796 C38.52654648 32.39668414 38.53728443 33.93149056 38.54516602 35.46630859 C38.55664333 37.01978698 38.5770275 38.57322726 38.60668945 40.12646484 C38.8119538 50.88965585 38.65439422 60.61107169 31.125 69.0625 C22.77145344 76.5107522 13.06741626 76.80212246 2.40869141 76.65405273 C0.12198772 76.62496168 -2.16240694 76.63350504 -4.44921875 76.64648438 C-15.1081207 76.63232807 -22.88826421 75.67947157 -30.98828125 68.15234375 C-38.52669814 59.7447524 -37.95749203 49.68544005 -38 39 C-38.020625 37.72318359 -38.04125 36.44636719 -38.0625 35.13085938 C-38.10408045 25.02161203 -37.16734105 16.0251037 -30.625 7.9453125 C-21.90287982 -0.23167517 -11.21089198 0.00576692 0 0 Z "
          transform="translate(466.75,108.8125)"/>
    <path d="M0 0 C2.41045258 0.02681531 4.8162512 0.00015712 7.2265625 -0.03173828 C17.03080862 -0.05451281 24.95572826 0.69599873 32.54101562 7.58300781 C40.11776938 15.19449857 40.85815877 23.95946049 40.87304688 34.32958984 C40.86877686 35.03043701 40.86450684 35.73128418 40.86010742 36.45336914 C40.85159047 38.58236325 40.88044717 40.70867133 40.91210938 42.83740234 C40.96160862 52.53734472 39.53905165 59.78054885 34.2890625 67.96435547 C25.50640031 76.17423534 16.41422061 76.44655347 4.97363281 76.30371094 C2.41841379 76.27690112 -0.13241452 76.30354746 -2.6875 76.33544922 C-11.45197061 76.3547294 -19.34685325 76.28669997 -26.5859375 70.65185547 C-35.06433897 61.85123967 -36.08171379 52.64543815 -35.97705078 40.87084961 C-35.96099711 38.72233324 -35.97693959 36.57570456 -35.99609375 34.42724609 C-36.01319868 24.11424281 -35.3116807 15.21663592 -27.71289062 7.58300781 C-19.46440411 0.09385167 -10.5773358 -0.13996882 0 0 Z "
          transform="translate(253.5859375,436.34814453125)"/>
    <path d="M0 0 C2.55521903 0.02680981 5.10604733 0.00016348 7.66113281 -0.03173828 C16.42560342 -0.05101846 24.32048606 0.01701097 31.55957031 5.65185547 C40.03797178 14.45247127 41.0553466 23.65827279 40.95068359 35.43286133 C40.93462992 37.58137769 40.9505724 39.72800638 40.96972656 41.87646484 C40.98683149 52.18946813 40.28531351 61.08707502 32.68652344 68.72070312 C24.43803692 76.20985927 15.55096861 76.44367975 4.97363281 76.30371094 C2.56318023 76.27689563 0.15738162 76.30355381 -2.25292969 76.33544922 C-12.05717581 76.35822375 -19.98209544 75.6077122 -27.56738281 68.72070312 C-35.14413657 61.10921237 -35.88452596 52.34425044 -35.89941406 41.97412109 C-35.89514404 41.27327393 -35.89087402 40.57242676 -35.88647461 39.8503418 C-35.87795766 37.72134769 -35.90681436 35.59503961 -35.93847656 33.46630859 C-35.98797581 23.76636621 -34.56541884 16.52316209 -29.31542969 8.33935547 C-20.5327675 0.1294756 -11.4405878 -0.14284253 0 0 Z "
          transform="translate(253.4404296875,-0.65185546875)"/>
    <path d="M0 0 C3.27226214 1.15765011 6.2608182 2.73062519 9.3125 4.375 C10.62553101 5.05719604 10.62553101 5.05719604 11.96508789 5.75317383 C14.65179377 7.1534311 17.32634319 8.57501805 20 10 C21.50192015 10.78906376 23.00449023 11.5768921 24.5078125 12.36328125 C27.55482674 13.95989915 30.59681249 15.56567577 33.63671875 17.17578125 C39.52946838 20.28869766 45.45030452 23.34706069 51.37182617 26.40475464 C53.24383016 27.37181272 55.11517787 28.34012909 56.98632812 29.30883789 C62.9040452 32.37169627 68.8263237 35.42459427 74.76171875 38.453125 C76.82034568 39.51035205 78.87894122 40.56764024 80.9375 41.625 C81.87174805 42.09728027 82.80599609 42.56956055 83.76855469 43.05615234 C88.70276359 45.60009654 93.01555086 48.10494556 97 52 C98.21121208 55.98987509 98.44996519 57.98757832 96.75 61.8125 C95 64 95 64 92 66 C87.5790033 66.41221941 84.75002573 65.74309569 80.83203125 63.7265625 C79.86676514 63.23687988 78.90149902 62.74719727 77.90698242 62.24267578 C76.88580322 61.70884277 75.86462402 61.17500977 74.8125 60.625 C73.74169189 60.0769873 72.67088379 59.52897461 71.56762695 58.96435547 C68.37105353 57.32334146 65.18405207 55.66515797 62 54 C61.16178711 53.56300781 60.32357422 53.12601562 59.45996094 52.67578125 C55.66280894 50.69298451 51.87408886 48.69480554 48.08984375 46.6875 C41.99692716 43.46075982 35.87257904 40.29498327 29.75 37.125 C28.61119385 36.53428711 27.4723877 35.94357422 26.29907227 35.33496094 C20.65022069 32.40512672 14.99737108 29.48357741 9.3359375 26.578125 C7.26559482 25.5104752 5.19528094 24.44276953 3.125 23.375 C2.17463867 22.89047363 1.22427734 22.40594727 0.24511719 21.90673828 C-10.9384839 16.12303221 -10.9384839 16.12303221 -13 12 C-13.48602588 7.70677141 -13.46241608 5.67917361 -11 2.0625 C-7.24471627 -0.51925756 -4.38142021 -0.66343421 0 0 Z "
          transform="translate(108,387)"/>
    <path d="M0 0 C2.58276367 0.94287109 2.58276367 0.94287109 5.16796875 2.2734375 C6.13307373 2.76303955 7.09817871 3.2526416 8.0925293 3.75708008 C9.11386963 4.29099365 10.13520996 4.82490723 11.1875 5.375 C12.2597583 5.92373779 13.3320166 6.47247559 14.43676758 7.0378418 C17.63190501 8.67807414 20.81748345 10.33543311 24 12 C24.82757813 12.4316748 25.65515625 12.86334961 26.5078125 13.30810547 C30.27116106 15.27464908 34.02605881 17.25665176 37.77734375 19.24609375 C43.62049524 22.33789759 49.4944232 25.36996746 55.36834717 28.40274048 C57.24062181 29.37015424 59.11190764 30.33945468 60.98291016 31.30932617 C66.91905393 34.38491996 72.86281105 37.44197149 78.83203125 40.453125 C80.41419434 41.2587085 80.41419434 41.2587085 82.02832031 42.08056641 C83.99553256 43.08190087 85.96730888 44.07433833 87.94433594 45.05615234 C92.59570896 47.43662131 96.2483359 49.36321796 99 54 C99.7066341 58.3968344 99.51930235 60.23727467 97 63.9375 C93.24471627 66.51925756 90.38142021 66.66343421 86 66 C82.72774447 64.84235223 79.73916678 63.26939018 76.6875 61.625 C75.81359619 61.17092773 74.93969238 60.71685547 74.03930664 60.24902344 C71.35118327 58.84795562 68.67522001 57.42551865 66 56 C64.4746675 55.19916863 62.9486587 54.39962367 61.421875 53.6015625 C58.35380389 51.99494063 55.29083868 50.37905211 52.23046875 48.7578125 C46.08898665 45.5108667 39.91907789 42.31911095 33.75 39.125 C31.44921386 37.9323011 29.14843261 36.73959277 26.84765625 35.546875 C22.35753423 33.21993792 17.86496886 30.89780393 13.37109375 28.578125 C11.30982347 27.51055638 9.24862223 26.44285444 7.1875 25.375 C6.24551758 24.89047363 5.30353516 24.40594727 4.33300781 23.90673828 C-9.85497833 16.54239883 -9.85497833 16.54239883 -12 12 C-12 7.23007877 -11.96023423 5.09741055 -8.8125 1.5 C-5.48565618 -0.2743167 -3.73150022 -0.27962371 0 0 Z "
          transform="translate(318,59)"/>
    <path d="M0 0 C2.4375 0.9375 2.4375 0.9375 4 3 C4.89887108 6.0491117 5.42005687 8.83907209 5 12 C1.95348044 17.30443051 -2.73858277 19.19531367 -8.0625 21.6875 C-9.88888669 22.57112924 -11.71438903 23.45658839 -13.5390625 24.34375 C-14.45977539 24.78847656 -15.38048828 25.23320312 -16.32910156 25.69140625 C-20.24251027 27.60876189 -24.09119025 29.63966288 -27.9375 31.6875 C-36.01461606 35.96929279 -44.1270077 40.18108241 -52.25 44.375 C-62.49449435 49.66512659 -72.72766805 54.97606722 -82.94433594 60.31982422 C-84.25772949 61.0064917 -84.25772949 61.0064917 -85.59765625 61.70703125 C-86.73473022 62.30221558 -86.73473022 62.30221558 -87.89477539 62.90942383 C-88.58949951 63.26931396 -89.28422363 63.6292041 -90 64 C-90.6902124 64.36955811 -91.3804248 64.73911621 -92.09155273 65.11987305 C-94.90989496 66.41962023 -96.93350367 66.37548935 -100 66 C-102.88633687 64.46062034 -104.51183095 63.26762128 -105.70703125 60.1640625 C-106.52880546 56.15503316 -106.44764908 54.71585263 -104.1875 51.1015625 C-100.31114852 46.77045113 -95.0505104 44.68084179 -89.875 42.25 C-87.6880006 41.19045483 -85.50180999 40.12923872 -83.31640625 39.06640625 C-82.23762207 38.54578613 -81.15883789 38.02516602 -80.04736328 37.48876953 C-75.92234168 35.47351703 -71.86292457 33.34784696 -67.8125 31.1875 C-59.73790702 26.90057386 -51.62380845 22.69260132 -43.5 18.5 C-33.42055505 13.29673276 -23.36093075 8.05801215 -13.33203125 2.7578125 C-8.63049161 0.27751609 -5.33684056 -0.53896806 0 0 Z "
          transform="translate(412,387)"/>
    <path d="M0 0 C2.88633687 1.53937966 4.51183095 2.73237872 5.70703125 5.8359375 C6.53742031 9.88699442 6.45088575 11.29549101 4.125 14.9296875 C0.4831279 18.9988112 -4.25014919 20.97543387 -9.125 23.25 C-11.12714104 24.21701492 -13.12843077 25.18579421 -15.12890625 26.15625 C-16.1255127 26.63578125 -17.12211914 27.1153125 -18.14892578 27.609375 C-22.16743382 29.56942139 -26.11749281 31.64686992 -30.0625 33.75 C-39.33590507 38.66931869 -48.65446995 43.50027696 -57.99121094 48.2980957 C-63.92448237 51.35055904 -69.83278186 54.43432589 -75.69140625 57.62890625 C-77.24649902 58.46832764 -77.24649902 58.46832764 -78.83300781 59.32470703 C-80.76039512 60.3679978 -82.68089395 61.42416053 -84.59277344 62.49560547 C-90.06728616 65.44145365 -93.77270465 66.66424484 -100 66 C-102.4375 65.0625 -102.4375 65.0625 -104 63 C-104.89887108 59.9508883 -105.42005687 57.16092791 -105 54 C-101.88757358 48.40472629 -96.48965922 46.42941107 -90.9375 43.8125 C-88.92625652 42.83633711 -86.915852 41.85844396 -84.90625 40.87890625 C-83.40191406 40.15018311 -83.40191406 40.15018311 -81.8671875 39.40673828 C-77.84715751 37.43437684 -73.8892912 35.3549632 -69.9375 33.25 C-61.82055292 28.9436037 -53.66514442 24.71399757 -45.5 20.5 C-36.2488156 15.72457835 -27.00962994 10.92824644 -17.80859375 6.05664062 C-15.87459412 5.03350412 -13.9380267 4.01548281 -12 3 C-10.906875 2.42636719 -9.81375 1.85273437 -8.6875 1.26171875 C-5.45608139 -0.25535714 -3.52996604 -0.52573962 0 0 Z "
          transform="translate(200,59)"/>
    <path d="M0 0 C3.34265205 1.20706879 3.94704566 1.92056849 6 5 C6.25726891 6.9197073 6.25726891 6.9197073 6.26742554 9.13023376 C6.27595551 9.96999252 6.28448547 10.80975128 6.29327393 11.67495728 C6.29236755 12.59296112 6.29146118 13.51096497 6.29052734 14.45678711 C6.30060318 15.91084206 6.30060318 15.91084206 6.31088257 17.39427185 C6.32991305 20.60534765 6.3337892 23.81621504 6.3359375 27.02734375 C6.34236146 29.25549914 6.34908951 31.48365366 6.35610962 33.71180725 C6.36809471 38.38495846 6.37178913 43.05803567 6.37060547 47.73120117 C6.37040211 53.72491866 6.3977167 59.7181629 6.43214989 65.71176815 C6.45436502 70.31423633 6.45844468 74.9165896 6.45738602 79.51910591 C6.45974963 81.72914831 6.46861563 83.93919351 6.48405075 86.14918327 C6.50360329 89.23773426 6.49791488 92.32525143 6.48583984 95.41381836 C6.49707886 96.32979797 6.50831787 97.24577759 6.51989746 98.18951416 C6.45816306 104.39004176 6.45816306 104.39004176 4.09463501 107.53663635 C0.53800151 110.02138818 -1.63777973 110.42766865 -6 110 C-8.69990662 108.20006226 -10.5418865 106.916227 -12 104 C-12.11448525 100.94491156 -12.16788532 97.91211544 -12.17700195 94.85620117 C-12.18357315 93.90809067 -12.19014435 92.95998016 -12.19691467 91.98313904 C-12.21667263 88.83641487 -12.22831549 85.68973846 -12.23828125 82.54296875 C-12.24235678 81.46985254 -12.2464323 80.39673634 -12.25063133 79.29110146 C-12.27150216 73.61195695 -12.28579982 67.93283669 -12.29516602 62.25366211 C-12.30623595 56.38222816 -12.34063995 50.51117262 -12.38033772 44.63987255 C-12.40645903 40.13002305 -12.41485385 35.62026434 -12.41844749 31.11034584 C-12.42332461 28.94577795 -12.43497042 26.7812144 -12.45348549 24.6167202 C-12.47778241 21.58816756 -12.47692908 18.56060229 -12.4699707 15.53198242 C-12.48278076 14.63672852 -12.49559082 13.74147461 -12.50878906 12.8190918 C-12.47408019 8.67746 -12.34557992 6.55043305 -10.09562683 2.9667511 C-6.71277629 -0.20806272 -4.57892507 -0.2747355 0 0 Z "
          transform="translate(470,201)"/>
    <path d="M0 0 C2.69990662 1.79993774 4.5418865 3.083773 6 6 C6.11448525 9.05508844 6.16788532 12.08788456 6.17700195 15.14379883 C6.18357315 16.09190933 6.19014435 17.04001984 6.19691467 18.01686096 C6.21667263 21.16358513 6.22831549 24.31026154 6.23828125 27.45703125 C6.24235678 28.53014746 6.2464323 29.60326366 6.25063133 30.70889854 C6.27150216 36.38804305 6.28579982 42.06716331 6.29516602 47.74633789 C6.30623595 53.61777184 6.34063995 59.48882738 6.38033772 65.36012745 C6.40645903 69.86997695 6.41485385 74.37973566 6.41844749 78.88965416 C6.42332461 81.05422205 6.43497042 83.2187856 6.45348549 85.3832798 C6.47778241 88.41183244 6.47692908 91.43939771 6.4699707 94.46801758 C6.48278076 95.36327148 6.49559082 96.25852539 6.50878906 97.1809082 C6.47408019 101.32254 6.34557992 103.44956695 4.09562683 107.0332489 C1.5353607 109.43606516 0.6402534 109.95824434 -2.875 110.1875 C-5.94628429 110.00322294 -7.48618314 109.7058043 -10 108 C-12.04195021 104.93707469 -12.25157671 104.31916391 -12.26742554 100.86976624 C-12.27595551 100.03000748 -12.28448547 99.19024872 -12.29327393 98.32504272 C-12.29236755 97.40703888 -12.29146118 96.48903503 -12.29052734 95.54321289 C-12.29724457 94.57384293 -12.30396179 93.60447296 -12.31088257 92.60572815 C-12.32991305 89.39465235 -12.3337892 86.18378496 -12.3359375 82.97265625 C-12.34236146 80.74450086 -12.34908951 78.51634634 -12.35610962 76.28819275 C-12.36809471 71.61504154 -12.37178913 66.94196433 -12.37060547 62.26879883 C-12.37040211 56.27508134 -12.3977167 50.2818371 -12.43214989 44.28823185 C-12.45436502 39.68576367 -12.45844468 35.0834104 -12.45738602 30.48089409 C-12.45974963 28.27085169 -12.46861563 26.06080649 -12.48405075 23.85081673 C-12.50360329 20.76226574 -12.49791488 17.67474857 -12.48583984 14.58618164 C-12.49707886 13.67020203 -12.50831787 12.75422241 -12.51989746 11.81048584 C-12.45816306 5.60995824 -12.45816306 5.60995824 -10.09463501 2.46336365 C-6.53800151 -0.02138818 -4.36222027 -0.42766865 0 0 Z "
          transform="translate(48,201)"/>
    <path d="M0 0 C3.67994477 1.47716887 7.13558118 3.31025051 10.625 5.1875 C11.56601562 5.67025391 12.50703125 6.15300781 13.4765625 6.65039062 C22.17598675 11.25342405 22.17598675 11.25342405 25 16 C25.6602967 19.96178018 25.36550574 21.45174139 23.125 24.8125 C20.0541623 27.97365645 20.0541623 27.97365645 17.16333008 28.04589844 C10.78854476 27.50696561 6.17266097 25.4477518 0.6875 22.25 C-0.09689453 21.81945312 -0.88128906 21.38890625 -1.68945312 20.9453125 C-5.98192524 18.50914311 -9.364295 16.31297183 -12 12 C-12.07836758 7.61141575 -11.43828382 5.58855256 -8.8125 2.0625 C-5.28658562 -0.52317055 -4.32054243 -0.56123508 0 0 Z "
          transform="translate(392,315)"/>
    <path d="M0 0 C3.16447765 3.24166003 3.96618052 5.03614489 4.125 9.5625 C1.62886923 17.18956624 -7.51409308 20.87058377 -14.29296875 24.3125 C-18.68561269 26.40476516 -22.08796652 27.31690539 -27 27 C-29.92143417 25.23496686 -31.47923817 24.04152365 -33 21 C-33.3773281 17.60404706 -33.3779393 15.6391778 -31.62109375 12.66796875 C-27.84236068 8.82165775 -23.49970254 6.60824697 -18.75 4.125 C-17.83347656 3.61453125 -16.91695312 3.1040625 -15.97265625 2.578125 C-10.11796653 -0.51208213 -6.4686967 -1.82543289 0 0 Z "
          transform="translate(128,316)"/>
    <path d="M0 0 C2.69990662 1.79993774 4.5418865 3.083773 6 6 C6.3773281 9.39595294 6.3779393 11.3608222 4.62109375 14.33203125 C0.84236068 18.17834225 -3.50029746 20.39175303 -8.25 22.875 C-9.16652344 23.38546875 -10.08304687 23.8959375 -11.02734375 24.421875 C-16.88203347 27.51208213 -20.5313033 28.82543289 -27 27 C-30.16447765 23.75833997 -30.96618052 21.96385511 -31.125 17.4375 C-28.93671081 10.75106081 -22.25854428 7.80830171 -16.3125 4.75 C-15.64927734 4.399375 -14.98605469 4.04875 -14.30273438 3.6875 C-9.35763404 1.09792077 -5.63808465 -0.56380847 0 0 Z "
          transform="translate(411,169)"/>
    <path d="M0 0 C3.27509439 1.31030904 6.26852091 2.97541404 9.3125 4.75 C10.09689453 5.18054688 10.88128906 5.61109375 11.68945312 6.0546875 C15.97755914 8.48837893 19.37951958 10.68184275 22 15 C21.93725525 18.57645093 21.39357793 21.12023756 19.9375 24.375 C16.9202025 26.90563661 13.81336438 27.24260127 10 27 C6.18617744 25.69558747 2.76487821 23.83265368 -0.75 21.875 C-1.68199219 21.38773438 -2.61398438 20.90046875 -3.57421875 20.3984375 C-8.27448572 17.86285589 -12.17853029 15.70773316 -15 11 C-15.6602967 7.03821982 -15.36550574 5.54825861 -13.125 2.1875 C-9.04805575 -2.00935438 -5.42134189 -1.19002502 0 0 Z "
          transform="translate(110,170)"/>
    <path d="M0 0 C2.85759959 2.76081815 3.90902733 4.42205595 4.53125 8.375 C4.5209375 9.57125 4.510625 10.7675 4.5 12 C4.5103125 13.19625 4.520625 14.3925 4.53125 15.625 C3.90926596 19.57642799 2.84524122 21.23110693 0 24 C-3.94929279 25.14888518 -6.02958859 25.43129396 -9.8125 23.75 C-12 22 -12 22 -14 19 C-14.3359375 15.8203125 -14.3359375 15.8203125 -14.375 12.125 C-14.40335938 10.91070312 -14.43171875 9.69640625 -14.4609375 8.4453125 C-13.92203898 4.41727443 -12.87807932 2.81573825 -10 0 C-6.16652698 -1.27782434 -3.91272241 -0.96101954 0 0 Z "
          transform="translate(261,396)"/>
    <path d="M0 0 C2.85759959 2.76081815 3.90902733 4.42205595 4.53125 8.375 C4.5209375 9.57125 4.510625 10.7675 4.5 12 C4.5103125 13.19625 4.520625 14.3925 4.53125 15.625 C3.90926596 19.57642799 2.84524122 21.23110693 0 24 C-3.94929279 25.14888518 -6.02958859 25.43129396 -9.8125 23.75 C-12 22 -12 22 -14 19 C-14.3359375 15.8203125 -14.3359375 15.8203125 -14.375 12.125 C-14.40335938 10.91070312 -14.43171875 9.69640625 -14.4609375 8.4453125 C-13.92203898 4.41727443 -12.87807932 2.81573825 -10 0 C-6.16652698 -1.27782434 -3.91272241 -0.96101954 0 0 Z "
          transform="translate(261,92)"/>
</svg>
