<svg stroke="none" fill="url(#iconGradient)" stroke-width="0" viewBox="0 0 576 512" height="200px" width="200px"
     xmlns="http://www.w3.org/2000/svg">
    <defs>
    <linearGradient id="iconGradient" x1="0" y1="0" x2="1" y2="1">
      <stop offset="0%" stop-color="#ffffff"/>
      <stop offset="50%" stop-color="#d0e8ff"/>
      <stop offset="100%" stop-color="#a8d8ff"/>
    </linearGradient>
  </defs>
    <path d="M420.55,301.93a24,24,0,1,1,24-24,24,24,0,0,1-24,24m-265.1,0a24,24,0,1,1,24-24,24,24,0,0,1-24,24m273.7-144.48,47.94-83a10,10,0,1,0-17.27-10h0l-48.54,84.07a301.25,301.25,0,0,0-246.56,0L116.18,64.45a10,10,0,1,0-17.27,10h0l47.94,83C64.53,202.22,8.24,285.55,0,384H576c-8.24-98.45-64.54-181.78-146.85-226.55"/>
</svg>